<?xml version="1.0" encoding="UTF-8" standalone="no"?>
<svg
   xmlns:dc="http://purl.org/dc/elements/1.1/"
   xmlns:cc="http://creativecommons.org/ns#"
   xmlns:rdf="http://www.w3.org/1999/02/22-rdf-syntax-ns#"
   xmlns:svg="http://www.w3.org/2000/svg"
   xmlns="http://www.w3.org/2000/svg"
   xmlns:sodipodi="http://sodipodi.sourceforge.net/DTD/sodipodi-0.dtd"
   xmlns:inkscape="http://www.inkscape.org/namespaces/inkscape"
   version="1.1"
   id="svg867"
   xml:space="preserve"
   width="1.7313108in"
   height="0.44999999in"
   viewBox="0 0 166.20584 43.2"
   sodipodi:docname="University-Wordmark-Limited-Use-Black.svg"
   inkscape:version="1.0.1 (3bc2e813f5, 2020-09-07)"
   inkscape:export-filename="/home/evan/resources/ece445_pcb/logo.png"
   inkscape:export-xdpi="600.12329"
   inkscape:export-ydpi="600.12329"><metadata
     id="metadata873"><rdf:RDF><cc:Work
         rdf:about=""><dc:format>image/svg+xml</dc:format><dc:type
           rdf:resource="http://purl.org/dc/dcmitype/StillImage" /><dc:title></dc:title></cc:Work></rdf:RDF></metadata><defs
     id="defs871" /><sodipodi:namedview
     pagecolor="#ffffff"
     bordercolor="#666666"
     borderopacity="1"
     objecttolerance="10"
     gridtolerance="10"
     guidetolerance="10"
     inkscape:pageopacity="0"
     inkscape:pageshadow="2"
     inkscape:window-width="1594"
     inkscape:window-height="857"
     id="namedview869"
     showgrid="false"
     inkscape:zoom="1.4454709"
     inkscape:cx="78.054426"
     inkscape:cy="-9.4521822"
     inkscape:window-x="1680"
     inkscape:window-y="40"
     inkscape:window-maximized="1"
     inkscape:current-layer="g875"
     inkscape:document-units="in"
     showguides="true"
     inkscape:guide-bbox="true"
     inkscape:document-rotation="0"
     fit-margin-top="0"
     fit-margin-left="0"
     fit-margin-right="0"
     fit-margin-bottom="0"
     units="in" /><g
     id="g875"
     inkscape:groupmode="layer"
     inkscape:label="ink_ext_XXXXXX"
     transform="matrix(1.3333333,0,0,-1.3333333,-117.52574,73.747131)"><path
       d="m 88.144305,46.587613 h 4.984634 V 31.633874 h -4.984634 v -8.723525 h 22.430735 v 8.723525 h -4.98447 v 14.953739 h 4.98447 V 55.31035 H 88.144305 v -8.722737"
       style="fill:#100f0d;fill-opacity:1;fill-rule:nonzero;stroke:none;stroke-width:0.0414213"
       id="path879" /><path
       d="m 128.16727,31.451538 h 2.95532 v 13.434241 h -2.95532 V 31.451538"
       style="fill:#100f0d;fill-opacity:1;fill-rule:nonzero;stroke:none;stroke-width:0.0414213"
       id="path881" /><path
       d="m 137.58928,44.885779 h -2.95541 V 31.451538 h 9.65281 v 2.687039 h -6.6974 v 10.747202"
       style="fill:#100f0d;fill-opacity:1;fill-rule:nonzero;stroke:none;stroke-width:0.0414213"
       id="path883" /><path
       d="m 149.4076,44.885779 h -2.95582 V 31.451538 h 9.65404 v 2.687039 h -6.69822 v 10.747202"
       style="fill:#100f0d;fill-opacity:1;fill-rule:nonzero;stroke:none;stroke-width:0.0414213"
       id="path885" /><path
       d="m 158.33512,31.451538 h 2.95582 v 13.434241 h -2.95582 V 31.451538"
       style="fill:#100f0d;fill-opacity:1;fill-rule:nonzero;stroke:none;stroke-width:0.0414213"
       id="path887" /><path
       d="m 173.82211,36.614657 -6.29437,8.271122 h -2.72552 V 31.451538 h 2.91688 v 8.540235 l 6.50604,-8.540235 h 2.51427 v 13.434241 h -2.9173 v -8.271122"
       style="fill:#100f0d;fill-opacity:1;fill-rule:nonzero;stroke:none;stroke-width:0.0414213"
       id="path889" /><path
       d="m 190.72365,38.130219 c 0,-2.302732 -1.65023,-4.183382 -4.03029,-4.183382 -2.37966,0 -4.06881,1.918965 -4.06881,4.222236 v 0.03802 c 0,2.303229 1.65064,4.18421 4.0307,4.18421 2.38006,0 4.0684,-1.919793 4.0684,-4.222235 z m -4.03029,6.98582 c -4.14544,0 -7.15842,-3.127968 -7.15842,-6.946966 v -0.03885 c 0,-3.818998 2.97487,-6.9089 7.12031,-6.9089 4.14544,0 7.15842,3.127926 7.15842,6.947754 v 0.03802 c 0,3.81933 -2.97446,6.908942 -7.12031,6.908942"
       style="fill:#100f0d;fill-opacity:1;fill-rule:nonzero;stroke:none;stroke-width:0.0414213"
       id="path891" /><path
       d="m 196.67422,31.451538 h 2.95624 v 13.434241 h -2.95624 V 31.451538"
       style="fill:#100f0d;fill-opacity:1;fill-rule:nonzero;stroke:none;stroke-width:0.0414213"
       id="path893" /><path
       d="m 208.5381,39.493103 c -2.32249,0.594934 -2.89824,0.882604 -2.89824,1.765581 v 0.03848 c 0,0.652385 0.59481,1.170647 1.72685,1.170647 1.13287,0 2.30344,-0.499167 3.49305,-1.32403 l 1.53591,2.226103 c -1.36277,1.09377 -3.03246,1.707798 -4.99044,1.707798 -2.74416,0 -4.70173,-1.612032 -4.70173,-4.049259 v -0.03836 c 0,-2.667778 1.74632,-3.416426 4.45279,-4.107333 2.24545,-0.576004 2.70564,-0.958985 2.70564,-1.707798 v -0.03836 c 0,-0.787336 -0.72943,-1.267077 -1.93852,-1.267077 -1.53507,0 -2.80173,0.633953 -4.01082,1.63146 l -1.74632,-2.091609 c 1.6117,-1.43972 3.66537,-2.149556 5.69998,-2.149556 2.89783,0 4.93244,1.497006 4.93244,4.164287 v 0.03836 c 0,2.341751 -1.53548,3.320328 -4.26059,4.030661"
       style="fill:#100f0d;fill-opacity:1;fill-rule:nonzero;stroke:none;stroke-width:0.0414213"
       id="path895" /><path
       d="m 131.13046,51.027931 c 0,-0.831325 -0.42705,-1.258793 -1.1308,-1.258793 -0.70495,0 -1.13129,0.442048 -1.13129,1.296362 v 2.966632 h -1.15413 v -2.99658 c 0,-1.543605 0.86128,-2.329946 2.27009,-2.329946 1.40792,0 2.30013,0.779092 2.30013,2.367142 v 2.959384 h -1.154 v -3.004201"
       style="fill:#100f0d;fill-opacity:1;fill-rule:nonzero;stroke:none;stroke-width:0.0414213"
       id="path897" /><path
       d="m 136.72979,52.121742 2.53954,-3.333625 h 0.98168 v 5.244015 h -1.13908 v -3.228788 l -2.4567,3.228788 h -1.06411 v -5.244015 h 1.13867 v 3.333625"
       style="fill:#100f0d;fill-opacity:1;fill-rule:nonzero;stroke:none;stroke-width:0.0414213"
       id="path899" /><path
       d="m 144.79617,54.032132 h -1.154 v -5.244015 h 1.154 v 5.244015"
       style="fill:#100f0d;fill-opacity:1;fill-rule:nonzero;stroke:none;stroke-width:0.0414213"
       id="path901" /><path
       d="m 150.77864,48.750589 2.12035,5.281543 h -1.24429 l -1.3698,-3.693451 -1.37146,3.693451 h -1.27329 l 2.11953,-5.281543 h 1.01896"
       style="fill:#100f0d;fill-opacity:1;fill-rule:nonzero;stroke:none;stroke-width:0.0414213"
       id="path903" /><path
       d="m 159.72563,49.813956 h -2.84647 v 1.101516 h 2.47202 v 1.02617 h -2.47202 v 1.063864 h 2.80919 v 1.026626 h -3.95573 v -5.244015 h 3.99301 v 1.025839"
       style="fill:#100f0d;fill-opacity:1;fill-rule:nonzero;stroke:none;stroke-width:0.0414213"
       id="path905" /><path
       d="m 164.0438,52.990594 h 1.1453 c 0.56208,0 0.90712,-0.254824 0.90712,-0.748813 v -0.01537 c 0,-0.441716 -0.32267,-0.741399 -0.88434,-0.741399 h -1.16808 z m 2.02964,-4.202477 h 1.34826 l -1.28116,1.872366 c 0.66688,0.24774 1.12376,0.779589 1.12376,1.625784 v 0.01508 c 0,1.078693 -0.74102,1.730788 -1.97745,1.730788 h -2.39705 v -5.244014 h 1.154 v 1.677893 h 0.90588 l 1.12376,-1.677893"
       style="fill:#100f0d;fill-opacity:1;fill-rule:nonzero;stroke:none;stroke-width:0.0414213"
       id="path907" /><path
       d="m 172.23816,49.731901 c -0.59895,0 -1.09352,0.247077 -1.5653,0.636686 l -0.68139,-0.816289 c 0.62919,-0.561921 1.4307,-0.839402 2.22474,-0.839402 1.13163,0 1.92568,0.584578 1.92568,1.625785 v 0.01487 c 0,0.914167 -0.6002,1.29603 -1.66348,1.573221 -0.90671,0.232498 -1.13122,0.344956 -1.13122,0.68925 v 0.01491 c 0,0.254824 0.23238,0.457084 0.67351,0.457084 0.4428,0 0.89926,-0.19497 1.36359,-0.516979 l 0.6002,0.869392 c -0.53227,0.426638 -1.18465,0.666592 -1.94804,0.666592 -1.07158,0 -1.83538,-0.629396 -1.83538,-1.580802 v -0.01504 c 0,-1.041206 0.68096,-1.333558 1.73762,-1.602962 0.87606,-0.224586 1.05624,-0.375069 1.05624,-0.666634 v -0.01537 c 0,-0.307097 -0.28456,-0.494321 -0.75677,-0.494321"
       style="fill:#100f0d;fill-opacity:1;fill-rule:nonzero;stroke:none;stroke-width:0.0414213"
       id="path909" /><path
       d="m 178.40786,54.032132 h -1.15358 v -5.244015 h 1.15358 v 5.244015"
       style="fill:#100f0d;fill-opacity:1;fill-rule:nonzero;stroke:none;stroke-width:0.0414213"
       id="path911" /><path
       d="m 182.88757,48.788117 h 1.15317 v 4.17982 h 1.59555 v 1.064195 h -4.34468 v -1.064195 h 1.59596 v -4.17982"
       style="fill:#100f0d;fill-opacity:1;fill-rule:nonzero;stroke:none;stroke-width:0.0414213"
       id="path913" /><path
       d="m 190.24026,48.788117 h 1.15317 v 2.089993 l 2.01514,3.154022 h -1.31098 l -1.2737,-2.10536 -1.25092,2.10536 h -1.34785 l 2.01514,-3.176514 v -2.067501"
       style="fill:#100f0d;fill-opacity:1;fill-rule:nonzero;stroke:none;stroke-width:0.0414213"
       id="path915" /><path
       d="m 201.25335,51.42516 c 0,0.898345 0.6441,1.632909 1.57276,1.632909 0.9295,0 1.58809,-0.749144 1.58809,-1.648276 v -0.01454 c 0,-0.899297 -0.6441,-1.633075 -1.57276,-1.633075 -0.92908,0 -1.58809,0.748814 -1.58809,1.647614 z m 1.57276,-2.727176 c 1.61833,0 2.79428,1.221141 2.79428,2.711809 v 0.01537 c 0,1.490544 -1.16063,2.696773 -2.77895,2.696773 -1.61875,0 -2.79428,-1.221141 -2.79428,-2.71214 v -0.01454 c 0,-1.491041 1.16062,-2.69727 2.77895,-2.69727"
       style="fill:#100f0d;fill-opacity:1;fill-rule:nonzero;stroke:none;stroke-width:0.0414213"
       id="path917" /><path
       d="m 209.86607,50.817925 h 2.50143 v 1.048952 h -2.50143 v 1.116427 h 2.8386 v 1.048828 h -3.9926 v -5.244015 h 1.154 v 2.029808"
       style="fill:#100f0d;fill-opacity:1;fill-rule:nonzero;stroke:none;stroke-width:0.0414213"
       id="path919" /><path
       d="m 130.36293,25.604835 c 0,-0.536861 -0.27545,-0.812246 -0.73026,-0.812246 -0.45448,0 -0.73001,0.285095 -0.73001,0.836515 v 1.914917 h -0.74459 V 25.60969 c 0,-0.996376 0.55608,-1.503948 1.46507,-1.503948 0.90878,0 1.48454,0.503202 1.48454,1.528217 v 1.910062 h -0.74475 v -1.939186"
       style="fill:#100f0d;fill-opacity:1;fill-rule:nonzero;stroke:none;stroke-width:0.0414213"
       id="path921" /><path
       d="m 135.94734,26.378572 c 0,-0.285583 -0.20793,-0.478933 -0.57037,-0.478933 h -0.7547 v 0.972103 h 0.73979 c 0.36285,0 0.58528,-0.164227 0.58528,-0.483465 z m 0.75428,0.03851 v 0.0097 c 0,0.319076 -0.10148,0.585237 -0.28995,0.773729 -0.22243,0.222473 -0.55628,0.343506 -0.98665,0.343506 h -1.5475 v -3.384886 h 0.74475 v 1.082781 h 0.58487 l 0.7257,-1.082781 h 0.87026 l -0.82676,1.20866 c 0.43036,0.1597 0.72528,0.503206 0.72528,1.049288"
       style="fill:#100f0d;fill-opacity:1;fill-rule:nonzero;stroke:none;stroke-width:0.0414213"
       id="path923" /><path
       d="m 141.52223,25.179294 c 0,-0.251601 -0.19841,-0.367286 -0.52729,-0.367286 h -0.88518 v 0.744609 h 0.86115 c 0.38149,0 0.55132,-0.140281 0.55132,-0.367614 z m -1.41247,1.711866 h 0.73523 c 0.31439,0 0.48836,-0.125883 0.48836,-0.348361 v -0.0097 c 0,-0.251117 -0.20752,-0.357582 -0.53641,-0.357582 h -0.68718 z m 1.51851,-0.962398 c 0.24148,0.135589 0.44528,0.348361 0.44528,0.730211 v 0.0097 c 0,0.232183 -0.0779,0.420699 -0.23238,0.575035 -0.19343,0.193851 -0.49788,0.300304 -0.88517,0.300304 h -1.57152 v -3.384886 h 1.61046 c 0.7638,0 1.26707,0.309367 1.26707,0.928259 v 0.0097 c 0,0.45466 -0.2419,0.68167 -0.63374,0.83166"
       style="fill:#100f0d;fill-opacity:1;fill-rule:nonzero;stroke:none;stroke-width:0.0414213"
       id="path925" /><path
       d="m 145.93111,25.575712 0.44983,1.097825 0.44984,-1.097825 z m 0.11598,1.992085 -1.45058,-3.408663 h 0.75926 l 0.30941,0.759177 h 1.43152 l 0.30942,-0.759177 h 0.77872 l -1.45057,3.408663 h -0.68718"
       style="fill:#100f0d;fill-opacity:1;fill-rule:nonzero;stroke:none;stroke-width:0.0414213"
       id="path927" /><path
       d="m 152.99053,25.459538 -1.58602,2.084483 h -0.68676 v -3.384887 h 0.73481 v 2.151479 l 1.63946,-2.151479 h 0.63333 v 3.384887 h -0.73482 v -2.084483"
       style="fill:#100f0d;fill-opacity:1;fill-rule:nonzero;stroke:none;stroke-width:0.0414213"
       id="path929" /><path
       d="m 157.59285,25.575712 0.44983,1.097825 0.44984,-1.097825 z m 0.11639,1.992085 -1.45057,-3.408663 h 0.75925 l 0.30942,0.759177 h 1.4311 l 0.30942,-0.759177 h 0.77872 l -1.45057,3.408663 h -0.68677"
       style="fill:#100f0d;fill-opacity:1;fill-rule:nonzero;stroke:none;stroke-width:0.0414213"
       id="path931" /><path
       d="m 162.11854,25.305016 h 1.48909 v 0.705942 h -1.48909 v -0.705942"
       style="fill:#100f0d;fill-opacity:1;fill-rule:nonzero;stroke:none;stroke-width:0.0414213"
       id="path933" /><path
       d="m 167.68348,24.787735 c -0.58031,0 -0.98127,0.483303 -0.98127,1.063847 v 0.0097 c 0,0.579898 0.4109,1.054138 0.98127,1.054138 0.33842,0 0.60475,-0.145298 0.86571,-0.382339 l 0.47386,0.546558 c -0.31439,0.309375 -0.69671,0.522156 -1.33501,0.522156 -1.03926,0 -1.76455,-0.787985 -1.76455,-1.750222 v -0.0097 c 0,-0.972103 0.73979,-1.740986 1.73597,-1.740986 0.65239,0 1.03967,0.232187 1.38802,0.604651 l -0.47427,0.478611 c -0.26551,-0.241892 -0.50285,-0.396414 -0.88973,-0.396414"
       style="fill:#100f0d;fill-opacity:1;fill-rule:nonzero;stroke:none;stroke-width:0.0414213"
       id="path935" /><path
       d="m 173.77075,26.204309 h -1.37311 v 1.339712 h -0.74476 v -3.384887 h 0.74476 v 1.358651 h 1.37311 v -1.358651 h 0.74476 v 3.384887 h -0.74476 v -1.339712"
       style="fill:#100f0d;fill-opacity:1;fill-rule:nonzero;stroke:none;stroke-width:0.0414213"
       id="path937" /><path
       d="m 178.38342,25.575712 0.44942,1.097825 0.44984,-1.097825 z m 0.11557,1.992085 -1.45057,-3.408663 h 0.75925 l 0.30942,0.759177 h 1.43151 l 0.30942,-0.759177 h 0.77831 l -1.45058,3.408663 h -0.68676"
       style="fill:#100f0d;fill-opacity:1;fill-rule:nonzero;stroke:none;stroke-width:0.0414213"
       id="path939" /><path
       d="m 184.86213,26.112407 -0.88973,1.431614 h -0.80316 v -3.384887 h 0.73067 v 2.195165 l 0.94316,-1.431133 h 0.019 l 0.95227,1.445697 v -2.209729 h 0.73979 v 3.384887 h -0.80232 l -0.88972,-1.431614"
       style="fill:#100f0d;fill-opacity:1;fill-rule:nonzero;stroke:none;stroke-width:0.0414213"
       id="path941" /><path
       d="m 191.3023,26.349445 c 0,-0.289949 -0.21746,-0.512423 -0.59025,-0.512423 h -0.58943 v 1.03472 h 0.57493 c 0.37279,0 0.60475,-0.178791 0.60475,-0.512588 z m -0.54137,1.194576 h -1.38306 v -3.384887 h 0.74475 v 1.01531 h 0.5654 c 0.75926,0 1.36856,0.406119 1.36856,1.189565 v 0.0097 c 0,0.691391 -0.48835,1.170304 -1.29565,1.170304"
       style="fill:#100f0d;fill-opacity:1;fill-rule:nonzero;stroke:none;stroke-width:0.0414213"
       id="path943" /><path
       d="m 195.32472,25.575712 0.44983,1.097825 0.44943,-1.097825 z m 0.11598,1.992085 -1.45057,-3.408663 h 0.75925 l 0.30941,0.759177 h 1.43152 l 0.30942,-0.759177 h 0.77831 l -1.45058,3.408663 h -0.68676"
       style="fill:#100f0d;fill-opacity:1;fill-rule:nonzero;stroke:none;stroke-width:0.0414213"
       id="path945" /><path
       d="m 200.14533,24.159134 h 0.74475 v 3.384887 h -0.74475 v -3.384887"
       style="fill:#100f0d;fill-opacity:1;fill-rule:nonzero;stroke:none;stroke-width:0.0414213"
       id="path947" /><path
       d="m 205.35239,25.464393 h 0.74973 v -0.483304 c -0.18847,-0.135588 -0.43037,-0.203063 -0.70126,-0.203063 -0.59978,0 -1.02518,0.454664 -1.02518,1.073556 v 0.0097 c 0,0.575205 0.43037,1.054138 0.97174,1.054138 0.39185,0 0.62381,-0.125883 0.88518,-0.343506 l 0.46889,0.566005 c -0.35291,0.299641 -0.72032,0.463876 -1.32963,0.463876 -1.02517,0 -1.77448,-0.787985 -1.77448,-1.750222 v -0.0097 c 0,-1.001227 0.72528,-1.740986 1.77945,-1.740986 0.61884,0 1.09767,0.241731 1.4456,0.536696 v 1.46997 h -1.47004 v -0.64316"
       style="fill:#100f0d;fill-opacity:1;fill-rule:nonzero;stroke:none;stroke-width:0.0414213"
       id="path949" /><path
       d="m 211.82157,25.459538 -1.58602,2.084483 h -0.68635 v -3.384887 h 0.73481 v 2.151479 l 1.63904,-2.151479 h 0.63374 v 3.384887 h -0.73522 v -2.084483"
       style="fill:#100f0d;fill-opacity:1;fill-rule:nonzero;stroke:none;stroke-width:0.0414213"
       id="path951" /></g></svg>
